<svg width="24" height="24" viewBox="0 0 24 24" fill="none" xmlns="http://www.w3.org/2000/svg">
<g id="noun_Close_1916272 1">
<g id="Group">
<path id="Vector" d="M12.768 11.9934L18.8488 5.91258C18.9469 5.81102 19.0012 5.67501 19 5.53383C18.9988 5.39264 18.9421 5.25759 18.8423 5.15775C18.7425 5.05792 18.6074 5.00129 18.4662 5.00006C18.325 4.99884 18.189 5.05311 18.0875 5.1512L12.0066 11.232L5.92581 5.15115C5.82426 5.05307 5.68824 4.99879 5.54706 5.00002C5.40588 5.00125 5.27082 5.05788 5.17099 5.15771C5.07115 5.25755 5.01452 5.3926 5.0133 5.53378C5.01207 5.67497 5.06634 5.81098 5.16443 5.91254L11.2452 11.9934L5.16439 18.0742C5.11296 18.1239 5.07194 18.1833 5.04372 18.249C5.0155 18.3147 5.00064 18.3854 5.00002 18.4569C4.9994 18.5283 5.01302 18.5993 5.0401 18.6654C5.06717 18.7316 5.10715 18.7917 5.15771 18.8423C5.20827 18.8928 5.26839 18.9328 5.33456 18.9599C5.40074 18.987 5.47164 19.0006 5.54314 19C5.61464 18.9993 5.68529 18.9845 5.75099 18.9563C5.81668 18.9281 5.8761 18.887 5.92577 18.8356L12.0066 12.7548L18.0875 18.8356C18.189 18.9337 18.325 18.988 18.4662 18.9867C18.6074 18.9855 18.7424 18.9289 18.8423 18.8291C18.9421 18.7292 18.9987 18.5942 19 18.453C19.0012 18.3118 18.9469 18.1758 18.8488 18.0742L12.768 11.9934Z" fill="#5F6B8A"/>
</g>
</g>
</svg>
