<svg width="9" height="13" viewBox="0 0 9 13" fill="none" xmlns="http://www.w3.org/2000/svg">
<path d="M8.12305 12.5C8.05013 12.5 7.97721 12.4909 7.9043 12.4727C7.84049 12.4453 7.77669 12.4089 7.71289 12.3633H7.72656L0.466797 6.92188C0.384766 6.85807 0.316406 6.7806 0.261719 6.68945C0.216146 6.58919 0.193359 6.48438 0.193359 6.375C0.193359 6.26562 0.216146 6.16536 0.261719 6.07422C0.316406 5.97396 0.384766 5.89193 0.466797 5.82812L7.72656 0.386719C7.78125 0.341146 7.84049 0.309245 7.9043 0.291016C7.97721 0.263672 8.05469 0.25 8.13672 0.25C8.19141 0.25 8.24154 0.259115 8.28711 0.277344C8.3418 0.286458 8.39193 0.30013 8.4375 0.318359C8.54688 0.382161 8.63346 0.46875 8.69727 0.578125C8.77018 0.678385 8.80664 0.796875 8.80664 0.933594V11.8164C8.80664 11.9531 8.77018 12.0762 8.69727 12.1855C8.63346 12.2858 8.54688 12.3633 8.4375 12.418V12.4316C8.39193 12.4499 8.3418 12.4681 8.28711 12.4863C8.24154 12.4954 8.19141 12.5 8.13672 12.5H8.12305ZM2.01172 6.375L7.45312 10.4629V2.28711L2.01172 6.375Z" fill="#C4C5D7"/>
</svg>
