<svg width="9" height="14" viewBox="0 0 9 15" fill="none" xmlns="http://www.w3.org/2000/svg">
<path d="M1 13.9375C0.817708 13.9375 0.66276 13.8737 0.535156 13.7461C0.407552 13.6185 0.34375 13.4635 0.34375 13.2812V1.03125C0.34375 0.848958 0.407552 0.69401 0.535156 0.566406C0.66276 0.438802 0.817708 0.375 1 0.375C1.18229 0.375 1.33724 0.438802 1.46484 0.566406C1.59245 0.69401 1.65625 0.848958 1.65625 1.03125V13.2812C1.65625 13.4635 1.59245 13.6185 1.46484 13.7461C1.33724 13.8737 1.18229 13.9375 1 13.9375ZM8 14.375C7.90885 14.375 7.82227 14.3568 7.74023 14.3203C7.66732 14.2839 7.59896 14.2383 7.53516 14.1836L1.41016 8.05859C1.35547 7.99479 1.3099 7.92643 1.27344 7.85352C1.23698 7.77148 1.21875 7.6849 1.21875 7.59375C1.21875 7.5026 1.23698 7.42057 1.27344 7.34766C1.3099 7.26562 1.35547 7.19271 1.41016 7.12891L7.53516 1.00391C7.59896 0.949219 7.66732 0.903646 7.74023 0.867188C7.82227 0.830729 7.90885 0.8125 8 0.8125C8.18229 0.8125 8.33724 0.876302 8.46484 1.00391C8.59245 1.13151 8.65625 1.28646 8.65625 1.46875V13.7188C8.65625 13.8555 8.61979 13.9785 8.54688 14.0879C8.47396 14.1973 8.37826 14.2747 8.25977 14.3203C8.21419 14.3385 8.16862 14.3522 8.12305 14.3613C8.08659 14.3704 8.04557 14.375 8 14.375ZM2.80469 7.59375L7.34375 12.1328V3.05469L2.80469 7.59375Z" fill="#C4C5D7"/>
</svg>
